<?xml version="1.0" encoding="UTF-8"?>
<svg width="25px" height="25px" viewBox="0 0 25 25" version="1.1" xmlns="http://www.w3.org/2000/svg" xmlns:xlink="http://www.w3.org/1999/xlink">
    <!-- Generator: sketchtool 46.2 (44496) - http://www.bohemiancoding.com/sketch -->
    <title>2F99E4A6-2052-423D-9CD9-F1BCF9762121</title>
    <desc>Created with sketchtool.</desc>
    <defs></defs>
    <g id="Symbols" stroke="none" stroke-width="1" fill="none" fill-rule="evenodd">
        <g id="Icons/New-request/Active">
            <rect id="Rectangle-8" x="0" y="0" width="25" height="25"></rect>
            <path d="M12,7.6 C12,7.1764 12.0864,6.4 12.2208,6.4 L0,6.4 L0,8.8 L12.2208,8.8 C12.0864,8.8 12,8.0236 12,7.6 L12,7.6 Z M21.3792,6.4 C20.8836,5.2 19.5648,4 18,4 C16.0116,4 14.4,5.6116 14.4,7.6 C14.4,9.5884 16.0116,11.2 18,11.2 C19.5648,11.2 20.8836,10 21.3792,8.8 L25,8.8 L25,6.4 L21.3792,6.4 Z M12.7792,18.4 L25,18.4 L25,16 L12.7792,16 C12.9136,16 13,16.7764 13,17.2 C13,17.6236 12.9136,18.0232 12.7792,18.4 Z M7,20.8 C5.4352,20.8 4.1164,19.6 3.6208,18.4 L0,18.4 L0,16 L3.6208,16 C4.1164,14.8 5.4352,13.6 7,13.6 C8.9884,13.6 10.6,15.2116 10.6,17.2 C10.6,19.1884 8.9884,20.8 7,20.8 Z" id="settings-[#1389]" fill="#0075E2"></path>
        </g>
    </g>
</svg>