<?xml version="1.0" encoding="UTF-8"?>
<svg width="25px" height="25px" viewBox="0 0 25 25" version="1.1" xmlns="http://www.w3.org/2000/svg" xmlns:xlink="http://www.w3.org/1999/xlink">
    <!-- Generator: sketchtool 46.2 (44496) - http://www.bohemiancoding.com/sketch -->
    <title>35390677-ED32-44EB-9988-DB8F55E83771</title>
    <desc>Created with sketchtool.</desc>
    <defs></defs>
    <g id="Symbols" stroke="none" stroke-width="1" fill="none" fill-rule="evenodd" stroke-linecap="round" stroke-linejoin="round">
        <g id="Side_menu/Icons/Сотрудник_ФНС/Главная" stroke="#FFFFFF" stroke-width="1.5">
            <g id="Главная" transform="translate(3.000000, 4.000000)">
                <path d="M11.0940862,16.595572 C10.2763545,16.8576341 9.40435874,17 8.49950932,17 C3.8047105,17 0,13.1943081 0,8.49852797 C0,6.86725224 0.459540688,5.34336467 1.25627719,4.04925132 C2.75206281,1.61969506 5.43632728,0 8.49950932,0 C13.1943081,0 17,3.8047105 17,8.49852797" id="Stroke-1"></path>
                <path d="M3,2 C4.46,3.22681704 6.0994,4 8.4114,4 C10.7244,4 12.54,3.22681704 14,2" id="Stroke-3"></path>
                <path d="M9,13 C6.687,13 4.46,14.022 3,15" id="Stroke-5"></path>
                <path d="M12,8 L0,8" id="Stroke-7"></path>
                <path d="M16.6832536,9.31901663 C18.4390735,11.0739111 18.4390735,13.9253775 16.682305,15.6831177 C14.9255366,17.4389608 12.0741078,17.4389608 10.3192365,15.6831177 C8.56057083,13.9253775 8.56057083,11.0739111 10.3173393,9.31901663 C12.0750564,7.56032779 14.9255366,7.56032779 16.6832536,9.31901663 Z" id="Stroke-9"></path>
                <path d="M11,13 C11,11.494 12.4952,10 14,10" id="Stroke-11"></path>
                <path d="M17,16 L19,18" id="Stroke-15"></path>
            </g>
        </g>
    </g>
</svg>