<?xml version="1.0" encoding="UTF-8"?>
<svg width="210px" height="55px" viewBox="0 0 210 55" version="1.1" xmlns="http://www.w3.org/2000/svg" xmlns:xlink="http://www.w3.org/1999/xlink">
    <!-- Generator: sketchtool 46.2 (44496) - http://www.bohemiancoding.com/sketch -->
    <title>57768440-D346-48A1-A7D7-CD37571B4612</title>
    <desc>Created with sketchtool.</desc>
    <defs></defs>
    <g id="Symbols" stroke="none" stroke-width="1" fill="none" fill-rule="evenodd">
        <g id="Monitoring_text_logo">
            <g id="Site-name">
                <rect id="Rectangle" x="0" y="0" width="210" height="55"></rect>
                <path d="M8.021,14.9 L5.265,19.45 L2.522,14.9 L0.91,14.9 L0.91,24 L2.405,24 L2.405,17.5 L5.174,22.089 L5.356,22.089 L8.125,17.513 L8.125,24 L9.62,24 L9.62,14.9 L8.021,14.9 Z M19.8131818,22.804 C18.9031818,23.714 17.7851818,24.169 16.4721818,24.169 C15.1591818,24.169 14.0411818,23.714 13.1181818,22.804 C12.2081818,21.881 11.7531818,20.763 11.7531818,19.45 C11.7531818,18.137 12.2081818,17.019 13.1181818,16.109 C14.0411818,15.186 15.1591818,14.731 16.4721818,14.731 C17.7851818,14.731 18.9031818,15.186 19.8131818,16.109 C20.7361818,17.019 21.1911818,18.137 21.1911818,19.45 C21.1911818,20.763 20.7361818,21.881 19.8131818,22.804 Z M14.1711818,21.79 C14.7951818,22.401 15.5621818,22.713 16.4721818,22.713 C17.3821818,22.713 18.1491818,22.401 18.7601818,21.79 C19.3841818,21.166 19.6961818,20.386 19.6961818,19.45 C19.6961818,18.514 19.3841818,17.734 18.7601818,17.123 C18.1491818,16.499 17.3821818,16.187 16.4721818,16.187 C15.5621818,16.187 14.7951818,16.499 14.1711818,17.123 C13.5601818,17.734 13.2481818,18.514 13.2481818,19.45 C13.2481818,20.386 13.5601818,21.166 14.1711818,21.79 Z M28.7193636,18.631 L24.8193636,18.631 L24.8193636,14.9 L23.3243636,14.9 L23.3243636,24 L24.8193636,24 L24.8193636,20.061 L28.7193636,20.061 L28.7193636,24 L30.2143636,24 L30.2143636,14.9 L28.7193636,14.9 L28.7193636,18.631 Z M39.7575454,24 L39.7575454,14.9 L38.5875454,14.9 L34.2975454,21.075 L34.2975454,14.9 L32.8025454,14.9 L32.8025454,24 L33.9725454,24 L38.2625454,17.825 L38.2625454,24 L39.7575454,24 Z M41.6307272,14.9 L41.6307272,16.33 L44.2047272,16.33 L44.2047272,24 L45.6997272,24 L45.6997272,16.33 L48.2607272,16.33 L48.2607272,14.9 L41.6307272,14.9 Z M57.218909,22.804 C56.308909,23.714 55.190909,24.169 53.877909,24.169 C52.564909,24.169 51.446909,23.714 50.523909,22.804 C49.613909,21.881 49.158909,20.763 49.158909,19.45 C49.158909,18.137 49.613909,17.019 50.523909,16.109 C51.446909,15.186 52.564909,14.731 53.877909,14.731 C55.190909,14.731 56.308909,15.186 57.218909,16.109 C58.141909,17.019 58.596909,18.137 58.596909,19.45 C58.596909,20.763 58.141909,21.881 57.218909,22.804 Z M51.576909,21.79 C52.200909,22.401 52.967909,22.713 53.877909,22.713 C54.787909,22.713 55.554909,22.401 56.165909,21.79 C56.789909,21.166 57.101909,20.386 57.101909,19.45 C57.101909,18.514 56.789909,17.734 56.165909,17.123 C55.554909,16.499 54.787909,16.187 53.877909,16.187 C52.967909,16.187 52.200909,16.499 51.576909,17.123 C50.965909,17.734 50.653909,18.514 50.653909,19.45 C50.653909,20.386 50.965909,21.166 51.576909,21.79 Z M60.7300908,14.9 L64.0840908,14.9 C64.9420908,14.9 65.6570908,15.186 66.2290908,15.758 C66.8140908,16.33 67.1000908,17.045 67.1000908,17.89 C67.1000908,18.735 66.8140908,19.437 66.2290908,20.022 C65.6570908,20.594 64.9420908,20.88 64.0840908,20.88 L62.2250908,20.88 L62.2250908,24 L60.7300908,24 L60.7300908,14.9 Z M62.2250908,19.476 L64.0840908,19.476 C64.9680908,19.476 65.6050908,18.813 65.6050908,17.89 C65.6050908,16.967 64.9680908,16.304 64.0840908,16.304 L62.2250908,16.304 L62.2250908,19.476 Z M76.1232726,24 L76.1232726,14.9 L74.9532726,14.9 L70.6632726,21.075 L70.6632726,14.9 L69.1682726,14.9 L69.1682726,24 L70.3382726,24 L74.6282726,17.825 L74.6282726,24 L76.1232726,24 Z M84.1064544,18.631 L80.2064544,18.631 L80.2064544,14.9 L78.7114544,14.9 L78.7114544,24 L80.2064544,24 L80.2064544,20.061 L84.1064544,20.061 L84.1064544,24 L85.6014544,24 L85.6014544,14.9 L84.1064544,14.9 L84.1064544,18.631 Z M88.1896362,14.9 L88.1896362,24 L89.6846362,24 L89.6846362,16.33 L93.3246362,16.33 L93.3246362,14.9 L88.1896362,14.9 Z M106.041,14.9 L106.041,22.57 L107.016,22.57 L107.016,25.742 L105.521,25.742 L105.521,24 L99.9959998,24 L99.9959998,25.742 L98.5009998,25.742 L98.5009998,22.57 L99.3459998,22.57 C99.8789998,21.881 100.139,20.828 100.139,19.437 L100.139,14.9 L106.041,14.9 Z M100.984,22.57 L104.546,22.57 L104.546,16.304 L101.634,16.304 L101.634,19.463 C101.634,20.815 101.413,21.855 100.984,22.57 Z M114.440182,19.281 C115.233182,19.697 115.714182,20.451 115.714182,21.4 C115.714182,22.141 115.454182,22.765 114.921182,23.259 C114.388182,23.753 113.751182,24 112.984182,24 L109.084182,24 L109.084182,14.9 L112.698182,14.9 C113.439182,14.9 114.076182,15.147 114.583182,15.628 C115.103182,16.109 115.363182,16.707 115.363182,17.422 C115.363182,18.215 115.051182,18.826 114.440182,19.281 Z M112.698182,16.304 L110.579182,16.304 L110.579182,18.696 L112.698182,18.696 C113.361182,18.696 113.868182,18.176 113.868182,17.5 C113.868182,16.824 113.361182,16.304 112.698182,16.304 Z M110.579182,22.596 L112.984182,22.596 C113.673182,22.596 114.219182,22.037 114.219182,21.322 C114.219182,20.607 113.673182,20.048 112.984182,20.048 L110.579182,20.048 L110.579182,22.596 Z M124.737363,24 L124.737363,14.9 L123.567363,14.9 L119.277363,21.075 L119.277363,14.9 L117.782363,14.9 L117.782363,24 L118.952363,24 L123.242363,17.825 L123.242363,24 L124.737363,24 Z M134.345545,19.346 L137.608545,14.9 L135.931545,14.9 L132.928545,19.034 L132.928545,14.9 L131.433545,14.9 L131.433545,19.034 L128.430545,14.9 L126.740545,14.9 L130.016545,19.346 L126.610545,24 L128.300545,24 L131.433545,19.736 L131.433545,24 L132.928545,24 L132.928545,19.736 L136.061545,24 L137.738545,24 L134.345545,19.346 Z M141.106727,20.113 L144.746727,20.113 L144.746727,18.696 L141.106727,18.696 L141.106727,16.33 L145.071727,16.33 L145.071727,14.9 L139.611727,14.9 L139.611727,24 L145.136727,24 L145.136727,22.57 L141.106727,22.57 L141.106727,20.113 Z M152.664909,18.631 L148.764909,18.631 L148.764909,14.9 L147.269909,14.9 L147.269909,24 L148.764909,24 L148.764909,20.061 L152.664909,20.061 L152.664909,24 L154.159909,24 L154.159909,14.9 L152.664909,14.9 L152.664909,18.631 Z M163.703091,24 L163.703091,14.9 L162.533091,14.9 L158.243091,21.075 L158.243091,14.9 L156.748091,14.9 L156.748091,24 L157.918091,24 L162.208091,17.825 L162.208091,24 L163.703091,24 Z M168.930272,14.9 L172.570272,14.9 L172.570272,24 L171.075272,24 L171.075272,20.685 L169.632272,20.685 L167.435272,24 L165.745272,24 L168.059272,20.555 C167.461272,20.373 166.967272,20.035 166.577272,19.528 C166.200272,19.021 166.005272,18.449 166.005272,17.825 C166.005272,17.006 166.291272,16.317 166.850272,15.758 C167.422272,15.186 168.111272,14.9 168.930272,14.9 Z M168.930272,19.346 L171.075272,19.346 L171.075272,16.304 L168.930272,16.304 C168.137272,16.304 167.500272,16.98 167.500272,17.825 C167.500272,18.67 168.137272,19.346 168.930272,19.346 Z M0.169,39 C1.066,39.091 1.768,38.922 2.392,38.389 C3.016,37.83 3.367,36.738 3.367,35.139 L3.367,31.33 L6.474,31.33 L6.474,39 L7.969,39 L7.969,29.9 L1.872,29.9 L1.872,35.165 C1.872,37.18 1.313,37.778 0.169,37.622 L0.169,39 Z M12.0521818,35.113 L15.6921818,35.113 L15.6921818,33.696 L12.0521818,33.696 L12.0521818,31.33 L16.0171818,31.33 L16.0171818,29.9 L10.5571818,29.9 L10.5571818,39 L16.0821818,39 L16.0821818,37.57 L12.0521818,37.57 L12.0521818,35.113 Z M21.2703636,34.333 L24.9493636,29.9 L23.1683636,29.9 L19.7103636,33.982 L19.7103636,29.9 L18.2153636,29.9 L18.2153636,39 L19.7103636,39 L19.7103636,34.671 L23.2983636,39 L25.0793636,39 L21.2703636,34.333 Z M34.5575454,39 L32.9455454,39 L32.3085454,37.167 L28.4345454,37.167 L27.7975454,39 L26.1725454,39 L29.4745454,29.9 L31.2685454,29.9 L34.5575454,39 Z M30.3715454,31.655 L28.9285454,35.763 L31.8145454,35.763 L30.3715454,31.655 Z M36.3007272,29.9 L39.6547272,29.9 C40.5127272,29.9 41.2277272,30.186 41.7997272,30.758 C42.3847272,31.33 42.6707272,32.045 42.6707272,32.89 C42.6707272,33.735 42.3847272,34.437 41.7997272,35.022 C41.2277272,35.594 40.5127272,35.88 39.6547272,35.88 L37.7957272,35.88 L37.7957272,39 L36.3007272,39 L36.3007272,29.9 Z M37.7957272,34.476 L39.6547272,34.476 C40.5387272,34.476 41.1757272,33.813 41.1757272,32.89 C41.1757272,31.967 40.5387272,31.304 39.6547272,31.304 L37.7957272,31.304 L37.7957272,34.476 Z M48.963909,39.169 C49.795909,39.169 50.562909,38.974 51.251909,38.584 C51.953909,38.181 52.499909,37.648 52.876909,36.985 L51.576909,36.244 C51.108909,37.141 50.107909,37.713 48.963909,37.713 C47.988909,37.713 47.208909,37.401 46.597909,36.79 C45.999909,36.179 45.700909,35.399 45.700909,34.45 C45.700909,33.501 45.999909,32.721 46.597909,32.11 C47.208909,31.499 47.988909,31.187 48.963909,31.187 C50.107909,31.187 51.095909,31.759 51.576909,32.656 L52.876909,31.902 C52.096909,30.563 50.614909,29.731 48.963909,29.731 C47.598909,29.731 46.454909,30.186 45.557909,31.096 C44.660909,31.993 44.205909,33.111 44.205909,34.45 C44.205909,35.789 44.660909,36.907 45.557909,37.817 C46.454909,38.714 47.598909,39.169 48.963909,39.169 Z M54.1000908,29.9 L54.1000908,31.33 L56.6740908,31.33 L56.6740908,39 L58.1690908,39 L58.1690908,31.33 L60.7300908,31.33 L60.7300908,29.9 L54.1000908,29.9 Z M67.9592726,34.281 C68.7522726,34.697 69.2332726,35.451 69.2332726,36.4 C69.2332726,37.141 68.9732726,37.765 68.4402726,38.259 C67.9072726,38.753 67.2702726,39 66.5032726,39 L62.6032726,39 L62.6032726,29.9 L66.2172726,29.9 C66.9582726,29.9 67.5952726,30.147 68.1022726,30.628 C68.6222726,31.109 68.8822726,31.707 68.8822726,32.422 C68.8822726,33.215 68.5702726,33.826 67.9592726,34.281 Z M66.2172726,31.304 L64.0982726,31.304 L64.0982726,33.696 L66.2172726,33.696 C66.8802726,33.696 67.3872726,33.176 67.3872726,32.5 C67.3872726,31.824 66.8802726,31.304 66.2172726,31.304 Z M64.0982726,37.596 L66.5032726,37.596 C67.1922726,37.596 67.7382726,37.037 67.7382726,36.322 C67.7382726,35.607 67.1922726,35.048 66.5032726,35.048 L64.0982726,35.048 L64.0982726,37.596 Z M72.7964544,35.113 L76.4364544,35.113 L76.4364544,33.696 L72.7964544,33.696 L72.7964544,31.33 L76.7614544,31.33 L76.7614544,29.9 L71.3014544,29.9 L71.3014544,39 L76.8264544,39 L76.8264544,37.57 L72.7964544,37.57 L72.7964544,35.113 Z M84.3546362,33.631 L80.4546362,33.631 L80.4546362,29.9 L78.9596362,29.9 L78.9596362,39 L80.4546362,39 L80.4546362,35.061 L84.3546362,35.061 L84.3546362,39 L85.8496362,39 L85.8496362,29.9 L84.3546362,29.9 L84.3546362,33.631 Z M93.832818,33.631 L89.932818,33.631 L89.932818,29.9 L88.437818,29.9 L88.437818,39 L89.932818,39 L89.932818,35.061 L93.832818,35.061 L93.832818,39 L95.327818,39 L95.327818,29.9 L93.832818,29.9 L93.832818,33.631 Z M101.27,39 L97.9159998,39 L97.9159998,29.9 L99.4109998,29.9 L99.4109998,33.02 L101.27,33.02 C102.128,33.02 102.843,33.306 103.415,33.891 C104,34.463 104.286,35.165 104.286,36.01 C104.286,36.855 104,37.557 103.415,38.142 C102.843,38.714 102.128,39 101.27,39 Z M106.665,39 L106.665,29.9 L105.17,29.9 L105.17,39 L106.665,39 Z M99.4109998,34.424 L99.4109998,37.596 L101.27,37.596 C102.154,37.596 102.791,36.933 102.791,36.01 C102.791,35.087 102.154,34.424 101.27,34.424 L99.4109998,34.424 Z M113.101182,34.32 L115.792182,29.9 L114.089182,29.9 L112.243182,32.929 L110.397182,29.9 L108.707182,29.9 L111.398182,34.32 L108.538182,39 L110.241182,39 L112.243182,35.711 L114.245182,39 L115.948182,39 L113.101182,34.32 Z M121.839545,29.9 L121.839545,39 L123.334545,39 L123.334545,31.33 L127.039545,31.33 L127.039545,39 L128.534545,39 L128.534545,29.9 L121.839545,29.9 Z M131.122727,29.9 L134.476727,29.9 C135.334727,29.9 136.049727,30.186 136.621727,30.758 C137.206727,31.33 137.492727,32.045 137.492727,32.89 C137.492727,33.735 137.206727,34.437 136.621727,35.022 C136.049727,35.594 135.334727,35.88 134.476727,35.88 L132.617727,35.88 L132.617727,39 L131.122727,39 L131.122727,29.9 Z M132.617727,34.476 L134.476727,34.476 C135.360727,34.476 135.997727,33.813 135.997727,32.89 C135.997727,31.967 135.360727,31.304 134.476727,31.304 L132.617727,31.304 L132.617727,34.476 Z M141.055909,35.113 L144.695909,35.113 L144.695909,33.696 L141.055909,33.696 L141.055909,31.33 L145.020909,31.33 L145.020909,29.9 L139.560909,29.9 L139.560909,39 L145.085909,39 L145.085909,37.57 L141.055909,37.57 L141.055909,35.113 Z M147.219091,29.9 L147.219091,39 L148.714091,39 L148.714091,31.33 L152.419091,31.33 L152.419091,39 L153.914091,39 L153.914091,29.9 L147.219091,29.9 Z M164.042272,39 L162.430272,39 L161.793272,37.167 L157.919272,37.167 L157.282272,39 L155.657272,39 L158.959272,29.9 L160.753272,29.9 L164.042272,39 Z M159.856272,31.655 L158.413272,35.763 L161.299272,35.763 L159.856272,31.655 Z M165.785454,29.9 L169.139454,29.9 C169.997454,29.9 170.712454,30.186 171.284454,30.758 C171.869454,31.33 172.155454,32.045 172.155454,32.89 C172.155454,33.735 171.869454,34.437 171.284454,35.022 C170.712454,35.594 169.997454,35.88 169.139454,35.88 L167.280454,35.88 L167.280454,39 L165.785454,39 L165.785454,29.9 Z M167.280454,34.476 L169.139454,34.476 C170.023454,34.476 170.660454,33.813 170.660454,32.89 C170.660454,31.967 170.023454,31.304 169.139454,31.304 L167.280454,31.304 L167.280454,34.476 Z M180.853636,39 L179.241636,39 L178.604636,37.167 L174.730636,37.167 L174.093636,39 L172.468636,39 L175.770636,29.9 L177.564636,29.9 L180.853636,39 Z M176.667636,31.655 L175.224636,35.763 L178.110636,35.763 L176.667636,31.655 Z M181.231818,29.9 L181.231818,31.33 L183.805818,31.33 L183.805818,39 L185.300818,39 L185.300818,31.33 L187.861818,31.33 L187.861818,29.9 L181.231818,29.9 Z M196.82,37.804 C195.91,38.714 194.792,39.169 193.479,39.169 C192.166,39.169 191.048,38.714 190.125,37.804 C189.215,36.881 188.76,35.763 188.76,34.45 C188.76,33.137 189.215,32.019 190.125,31.109 C191.048,30.186 192.166,29.731 193.479,29.731 C194.792,29.731 195.91,30.186 196.82,31.109 C197.743,32.019 198.198,33.137 198.198,34.45 C198.198,35.763 197.743,36.881 196.82,37.804 Z M191.178,36.79 C191.802,37.401 192.569,37.713 193.479,37.713 C194.389,37.713 195.156,37.401 195.767,36.79 C196.391,36.166 196.703,35.386 196.703,34.45 C196.703,33.514 196.391,32.734 195.767,32.123 C195.156,31.499 194.389,31.187 193.479,31.187 C192.569,31.187 191.802,31.499 191.178,32.123 C190.567,32.734 190.255,33.514 190.255,34.45 C190.255,35.386 190.567,36.166 191.178,36.79 Z M205.687181,34.281 C206.480181,34.697 206.961181,35.451 206.961181,36.4 C206.961181,37.141 206.701181,37.765 206.168181,38.259 C205.635181,38.753 204.998181,39 204.231181,39 L200.331181,39 L200.331181,29.9 L203.945181,29.9 C204.686181,29.9 205.323181,30.147 205.830181,30.628 C206.350181,31.109 206.610181,31.707 206.610181,32.422 C206.610181,33.215 206.298181,33.826 205.687181,34.281 Z M203.945181,31.304 L201.826181,31.304 L201.826181,33.696 L203.945181,33.696 C204.608181,33.696 205.115181,33.176 205.115181,32.5 C205.115181,31.824 204.608181,31.304 203.945181,31.304 Z M201.826181,37.596 L204.231181,37.596 C204.920181,37.596 205.466181,37.037 205.466181,36.322 C205.466181,35.607 204.920181,35.048 204.231181,35.048 L201.826181,35.048 L201.826181,37.596 Z" id="Мониторинг-движения" fill="#061225"></path>
            </g>
        </g>
    </g>
</svg>