<?xml version="1.0" encoding="UTF-8"?>
<svg width="25px" height="25px" viewBox="0 0 25 25" version="1.1" xmlns="http://www.w3.org/2000/svg" xmlns:xlink="http://www.w3.org/1999/xlink">
    <!-- Generator: sketchtool 46.2 (44496) - http://www.bohemiancoding.com/sketch -->
    <title>81E3051B-A2F7-41BB-A3DE-75F3C57C08EC</title>
    <desc>Created with sketchtool.</desc>
    <defs></defs>
    <g id="Symbols" stroke="none" stroke-width="1" fill="none" fill-rule="evenodd">
        <g id="Icons/Search/Disabled" fill-rule="nonzero" fill="#DCDEE0">
            <path d="M16.7768866,16.7768866 L21,21 L20,22 L15.7768866,17.7768866 C14.6406927,18.6938485 13.1951804,19.2428729 11.6214365,19.2428729 C7.96451808,19.2428729 5,16.2783548 5,12.6214365 C5,8.96451808 7.96451808,6 11.6214365,6 C15.2783548,6 18.2428729,8.96451808 18.2428729,12.6214365 C18.2428729,14.1951804 17.6938485,15.6406927 16.7768866,16.7768866 Z M11.6214365,17.7714426 C14.4657063,17.7714426 16.7714426,15.4657063 16.7714426,12.6214365 C16.7714426,9.77716661 14.4657063,7.47143033 11.6214365,7.47143033 C8.77716661,7.47143033 6.47143033,9.77716661 6.47143033,12.6214365 C6.47143033,15.4657063 8.77716661,17.7714426 11.6214365,17.7714426 Z" id="Combined-Shape"></path>
        </g>
    </g>
</svg>