<?xml version="1.0" encoding="UTF-8"?>
<svg width="25px" height="25px" viewBox="0 0 25 25" version="1.1" xmlns="http://www.w3.org/2000/svg" xmlns:xlink="http://www.w3.org/1999/xlink">
    <!-- Generator: sketchtool 46.2 (44496) - http://www.bohemiancoding.com/sketch -->
    <title>1E9D9784-9FD7-42DB-BD01-9FDE2D34DE78</title>
    <desc>Created with sketchtool.</desc>
    <defs></defs>
    <g id="Symbols" stroke="none" stroke-width="1" fill="none" fill-rule="evenodd">
        <g id="Side_menu/Icons/Сотрудник_ФНС/Товары" stroke="#FFFFFF" stroke-width="1.5">
            <g id="Товары" transform="translate(1.000000, 3.000000)">
                <path d="M12,19 L2.2547,18.977 C1.4237,18.976 0.7497,18.303 0.7497,17.471 L0.7507,8.443 C0.7507,7.613 1.4257,6.937 2.2567,6.938 L10.0002482,6.938" id="Stroke-1"></path>
                <path d="M5.6075,10.5899 C5.6075,11.3369 5.0005,11.9449 4.2535,11.9449 C3.5065,11.9449 2.9005,11.3369 2.9005,10.5909 C2.9005,9.8429 3.5065,9.2369 4.2535,9.2379 C5.0005,9.2369 5.6075,9.8429 5.6075,10.5899 Z" id="Stroke-3"></path>
                <path d="M9.0684,11.9453 C8.3224,11.9463 7.7144,11.3393 7.7144,10.5913 C7.7144,9.8423 8.3224,9.2383 9.0694,9.2383" id="Stroke-5" stroke-linecap="round"></path>
                <path d="M5.6455,15.335 C5.6455,16.081 5.0395,16.688 4.2925,16.688 C3.5435,16.688 2.9385,16.081 2.9385,15.334 C2.9385,14.588 3.5435,13.981 4.2925,13.981 C5.0405,13.981 5.6455,14.588 5.6455,15.335 Z" id="Stroke-7"></path>
                <path d="M9.1065,16.6875 C8.3605,16.6875 7.7525,16.0815 7.7515,15.3335 C7.7525,14.5845 8.3605,13.9805 9.1075,13.9805" id="Stroke-9" stroke-linecap="round"></path>
                <path d="M12,12.5 C12.001,13.275 12.726,14 13.5,14 L18,14 C18.776,14 19.5,13.275 19.5,12.5 C19.5,11.727 18.776,11.002 18,11.001 L13.5,11.001 C12.726,11 12,11.727 12,12.5 Z" id="Stroke-11"></path>
                <path d="M15.75,11 L15.75,14" id="Stroke-13"></path>
                <path d="M20.1846,5.2793 L19.9146,5.2773 L19.9146,3.1923 L11.6436,3.1923 L11.6436,5.2533 L11.3736,5.2533 C10.5426,5.2523 9.8686,5.9273 9.8686,6.7583 L9.8676,17.4703 C9.8676,18.3023 10.5406,18.9753 11.3716,18.9763 L20.1826,19.0033 C21.0136,19.0033 21.6886,18.3283 21.6886,17.4973 L21.6906,6.7833 C21.6906,5.9513 21.0156,5.2793 20.1846,5.2793 Z" id="Stroke-15" stroke-linejoin="round"></path>
                <path d="M10,8 L21.5,8" id="Stroke-17" stroke-linejoin="round"></path>
                <polygon id="Stroke-19" stroke-linejoin="round" points="10.383 3.192 21.174 3.192 21.174 0.75 10.383 0.75"></polygon>
                <path d="M10,16.47365 L21.5,16.47365" id="Stroke-21" stroke-linejoin="round"></path>
            </g>
        </g>
    </g>
</svg>