<?xml version="1.0" encoding="UTF-8"?>
<svg width="25px" height="25px" viewBox="0 0 25 25" version="1.1" xmlns="http://www.w3.org/2000/svg" xmlns:xlink="http://www.w3.org/1999/xlink">
    <!-- Generator: sketchtool 46.2 (44496) - http://www.bohemiancoding.com/sketch -->
    <title>925B8225-96EC-474C-891B-C1B647131A8A</title>
    <desc>Created with sketchtool.</desc>
    <defs></defs>
    <g id="Symbols" stroke="none" stroke-width="1" fill="none" fill-rule="evenodd" stroke-linejoin="round">
        <g id="Side_menu/Icons/Сотрудник_ФНС/Администрирование" stroke="#FFFFFF" stroke-width="1.5">
            <g id="Администрирование" transform="translate(3.000000, 2.000000)">
                <path d="M13,2.5 L5,2.5" id="Stroke-1"></path>
                <path d="M9,5 L5,5" id="Stroke-2"></path>
                <polyline id="Stroke-3" stroke-linecap="round" points="15.9726 7 15.9726 0 3.0746 0 3.0746 14 5.5 14"></polyline>
                <polyline id="Stroke-5" stroke-linecap="round" points="3 2 0.5 2 0.5 16 6 16"></polyline>
                <path d="M11,15 C10.01,14.01 10.01,12.491 11,11.5 C11.99,10.51 13.51,10.51 14.5,11.5 C15.49,12.49 15.49,14.01 14.5,15 C13.511,15.99 11.989,15.991 11,15 Z M18.7083,17.1978 L18.4463,16.5238 C18.0413,15.4778 18.4243,14.0458 19.3003,13.3438 L19.8593,12.8928 C19.8043,11.9368 19.5563,10.9898 19.1173,10.1148 L18.4033,10.0048 C17.2953,9.8338 16.2463,8.7848 16.0753,7.6768 L15.9653,6.9638 C15.0913,6.5238 14.1443,6.2768 13.1883,6.2198 L12.7373,6.7818 C12.0343,7.6558 10.6023,8.0388 9.5563,7.6338 L8.8833,7.3728 C8.4883,7.6328 8.1123,7.9378 7.7633,8.2858 C7.4163,8.6338 7.1123,9.0088 6.8513,9.4048 L7.1133,10.0778 C7.5183,11.1238 7.1353,12.5558 6.2603,13.2588 L5.6993,13.7088 C5.7563,14.6648 6.0033,15.6128 6.4433,16.4868 L7.1563,16.5958 C8.2633,16.7678 9.3123,17.8178 9.4843,18.9248 L9.5943,19.6378 C10.4693,20.0778 11.4163,20.3248 12.3723,20.3808 L12.8233,19.8208 C13.5253,18.9458 14.9573,18.5618 16.0033,18.9668 L16.6773,19.2298 C17.0713,18.9678 17.4473,18.6638 17.7953,18.3168 C18.1433,17.9678 18.4473,17.5928 18.7083,17.1978 Z" id="Stroke-7" stroke-linecap="round"></path>
            </g>
        </g>
    </g>
</svg>