<?xml version="1.0" encoding="UTF-8"?>
<svg width="25px" height="25px" viewBox="0 0 25 25" version="1.1" xmlns="http://www.w3.org/2000/svg" xmlns:xlink="http://www.w3.org/1999/xlink">
    <!-- Generator: sketchtool 46.2 (44496) - http://www.bohemiancoding.com/sketch -->
    <title>BB86FDD3-8A64-4A26-BE41-E7F3DEC0EE35</title>
    <desc>Created with sketchtool.</desc>
    <defs></defs>
    <g id="Symbols" stroke="none" stroke-width="1" fill="none" fill-rule="evenodd">
        <g id="Side_menu/Icons/Сотрудник_ФНС/Контроль">
            <g id="Контроль" transform="translate(3.000000, 2.000000)">
                <path d="M11.9629,4.1348 L3.4419,4.1348" id="Stroke-1" stroke="#FFFFFF" stroke-width="1.5" stroke-linejoin="round"></path>
                <path d="M8.6211,6.7256 L3.4411,6.7256" id="Stroke-2" stroke="#FFFFFF" stroke-width="1.5" stroke-linejoin="round"></path>
                <polyline id="Stroke-3" stroke="#FFFFFF" stroke-width="1.5" stroke-linecap="round" stroke-linejoin="round" points="15.4004 9.5899 15.3734 0.7499 0.7504 0.7499 0.7634 17.9279 9.5784 17.9279"></polyline>
                <path d="M15.4824,10.0752 C17.4234,12.0152 17.4234,15.1702 15.4824,17.1132 C13.5394,19.0552 10.3844,19.0552 8.4454,17.1132 C6.5004,15.1702 6.5004,12.0152 8.4434,10.0752 C10.3864,8.1312 13.5394,8.1312 15.4824,10.0752 Z" id="Stroke-5" stroke="#FFFFFF" stroke-width="1.5" stroke-linecap="round" stroke-linejoin="round"></path>
                <path d="M15.4824,17.1123 L18.0604,19.6913" id="Fill-7" fill="#FFFFFF"></path>
                <path d="M15.5,17.5 L18,20" id="Stroke-9" stroke="#FFFFFF" stroke-width="1.5" stroke-linecap="round" stroke-linejoin="round"></path>
                <polyline id="Stroke-11" stroke="#FFFFFF" stroke-width="1.5" stroke-linecap="round" stroke-linejoin="round" points="10 14 11.5 15.5 14 12"></polyline>
            </g>
        </g>
    </g>
</svg>