<?xml version="1.0" encoding="UTF-8"?>
<svg width="25px" height="25px" viewBox="0 0 25 25" version="1.1" xmlns="http://www.w3.org/2000/svg" xmlns:xlink="http://www.w3.org/1999/xlink" style="background: #0055AF;">
    <!-- Generator: sketchtool 46.2 (44496) - http://www.bohemiancoding.com/sketch -->
    <title>ED7782BD-8D45-485D-B16D-3895BAB7F78D</title>
    <desc>Created with sketchtool.</desc>
    <defs></defs>
    <g id="Symbols" stroke="none" stroke-width="1" fill="none" fill-rule="evenodd">
        <g id="Side_menu/Icons/Общие/Сотрудник" fill-rule="nonzero" fill="#FFFFFF">
            <path d="M10.0522547,15.6129149 C9.60255751,16.0061531 9.06305865,16.25 8.5,16.25 C6.98121694,16.25 5.75,17.4812169 5.75,19 L5.75,21.25 L19.25,21.25 L19.25,19 C19.25,17.4812169 18.0187831,16.25 16.5,16.25 C15.9369413,16.25 15.3974425,16.0061531 14.9477453,15.6129149 L13.0303301,17.5303301 C12.7374369,17.8232233 12.2625631,17.8232233 11.9696699,17.5303301 L10.0522547,15.6129149 Z M10.9458095,14.3851493 L12.5,15.9393398 L14.0541905,14.3851493 C13.8608991,13.9505408 13.75,13.4752748 13.75,13 C13.75,12.7597891 13.8650591,12.5341124 14.0594643,12.3930171 C15.3948629,11.4238122 16.449205,9.22491979 16.449205,7.5 C16.449205,5.21072444 14.6441738,3.25 12.5,3.25 C10.3340867,3.25 8.46236904,5.23202428 8.46236904,7.5 C8.46236904,9.28400545 9.46068654,11.3441826 10.9336643,12.3880888 C11.132082,12.5287084 11.25,12.7568058 11.25,13 C11.25,13.4752748 11.1391009,13.9505408 10.9458095,14.3851493 Z M16.5,14.75 C18.8472102,14.75 20.75,16.6527898 20.75,19 L20.75,22 C20.75,22.4142136 20.4142136,22.75 20,22.75 L5,22.75 C4.58578644,22.75 4.25,22.4142136 4.25,22 L4.25,19 C4.25,16.6527898 6.15278981,14.75 8.5,14.75 C8.96928619,14.75 9.56462636,14.0819787 9.71452522,13.3426669 C8.03331132,11.957563 6.96236904,9.61280753 6.96236904,7.5 C6.96236904,4.42219362 9.48584572,1.75 12.5,1.75 C15.5015848,1.75 17.949205,4.40874003 17.949205,7.5 C17.949205,9.54512562 16.8415691,11.9925737 15.2838835,13.3347317 C15.4311135,14.0771917 16.0290354,14.75 16.5,14.75 Z M14.5,19.75 L14.5,18.25 L18,18.25 L18,19.75 L14.5,19.75 Z" id="Combined-Shape"></path>
        </g>
    </g>
</svg>