<?xml version="1.0" encoding="UTF-8"?>
<svg width="25px" height="25px" viewBox="0 0 25 25" version="1.1" xmlns="http://www.w3.org/2000/svg" xmlns:xlink="http://www.w3.org/1999/xlink">
    <!-- Generator: sketchtool 46.2 (44496) - http://www.bohemiancoding.com/sketch -->
    <title>D8E56E22-AFAD-4909-B6FB-BD039319DD8D</title>
    <desc>Created with sketchtool.</desc>
    <defs></defs>
    <g id="Symbols" stroke="none" stroke-width="1" fill="none" fill-rule="evenodd" stroke-linejoin="round">
        <g id="Side_menu/Icons/Сотрудник_ФНС/Участники" stroke="#FFFFFF" stroke-width="1.5">
            <g id="Участники" transform="translate(1.000000, 5.000000)">
                <path d="M12.5,7.5 L16,7.5" id="Stroke-1"></path>
                <path d="M12.5,5 L15,5" id="Stroke-2"></path>
                <path d="M11,10 C11,7.289 9.2942,7.9146 9.2942,6.6026 C9.2942,6.6026 10.1082,5.9576 10.1082,4.7256 C10.1082,3.6486 9.2352,2.7756 8.1572,2.7756 C7.0792,2.7756 6.1972,3.6486 6.2062,4.7256 C6.2152,5.9836 6.9572,6.6026 6.9572,6.6026 C6.9572,8.0336 5,7.323 5,10 L11,10 Z" id="Stroke-3"></path>
                <path d="M20.0029,0 L4.5,0 C3.569,0 3,0.568 3,1.5 L3,11 C3,11.932 3.57,12.5 4.5,12.5 L20.0029,12.5 C20.9349,12.5 21.5,11.87 21.5,10.938 L21.5,1.5 C21.5,0.568 20.9339,0 20.0029,0 Z" id="Stroke-5" stroke-linecap="round"></path>
                <path d="M19,5 L19,7.5" id="Stroke-7" stroke-linecap="round"></path>
                <path d="M2.5,2 C1,2 0.5,3 0.5,4 L0.5,12.5 C0.5,14 1.5,15.0625 3,15.0625 L17.5,15.0625 C19,15.0625 19.5,13.932 19.5,13" id="Stroke-9" stroke-linecap="round"></path>
            </g>
        </g>
    </g>
</svg>