<?xml version="1.0" encoding="UTF-8"?>
<svg width="25px" height="25px" viewBox="0 0 25 25" version="1.1" xmlns="http://www.w3.org/2000/svg" xmlns:xlink="http://www.w3.org/1999/xlink" style="background: #0055AF;">
    <!-- Generator: sketchtool 46.2 (44496) - http://www.bohemiancoding.com/sketch -->
    <title>2293010D-5564-4EC0-BD67-1D952820F8BE</title>
    <desc>Created with sketchtool.</desc>
    <defs></defs>
    <g id="Symbols" stroke="none" stroke-width="1" fill="none" fill-rule="evenodd">
        <g id="Side_menu/Icons/Общие/Support">
            <g id="Поддержка" transform="translate(4.000000, 4.000000)">
                <circle id="Oval" stroke="#FFFFFF" stroke-width="1.5" cx="8.5" cy="8.5" r="8.5"></circle>
                <path d="M11.331,6.266 C11.331,4.615 10.057,3.666 8.588,3.666 C7.08,3.666 5.858,4.654 5.858,6.266 L7.548,6.266 C7.548,5.668 7.899,5.187 8.588,5.187 C9.238,5.187 9.641,5.642 9.641,6.253 C9.641,6.539 9.472,6.851 9.264,7.124 L8.302,8.359 C7.964,8.801 7.808,9.152 7.808,9.711 L7.808,10.101 L9.498,10.101 L9.498,9.828 C9.498,9.607 9.602,9.334 9.732,9.165 L10.694,7.891 C11.058,7.41 11.331,6.916 11.331,6.266 Z M9.55,13 L9.55,11.271 L7.756,11.271 L7.756,13 L9.55,13 Z" id="?" fill="#FFFFFF"></path>
            </g>
        </g>
    </g>
</svg>